# xmcd CD database file
#
# Track frame offsets:
#	150
#	20092
#	36027
#	57102
#	73870
#	92622
#	107702
#	124940
#	140762
#	155902
#	180775
#	195690
#	212680
#
# Disc length: 3094 seconds
#
# Revision: 1
# Processed by: cddbd v1.5.2PL0 Copyright (c) Steve Scherf et al.
# Submitted via: CDex 1.87
#
DISCID=bb0c140d
DTITLE=Sarka Rezkova - Boruvkova
DYEAR=1997
DGENRE=Country
TTITLE0=Boruvkova
TTITLE1=Cekam Tvuj dopis
TTITLE2=Dlouho byt sam
TTITLE3=Destny smouhy
TTITLE4=Studeny rano
TTITLE5=Myslim jen na to (..., ze)
TTITLE6=Klice k zazrakum
TTITLE7=Pan, co je sam
TTITLE8=Sedm muzu
TTITLE9=Za Mokrou horou
TTITLE10=Takhle ma to byt
TTITLE11=Zivly
TTITLE12=Boruvkova
EXTD=YEAR: 1997
EXTT0=
EXTT1=
EXTT2=
EXTT3=
EXTT4=
EXTT5=
EXTT6=
EXTT7=
EXTT8=
EXTT9=
EXTT10=
EXTT11=
EXTT12=
PLAYORDER=
